<svg xmlns="http://www.w3.org/2000/svg" width="400" height="300" viewBox="0 0 400 300"><title>Temporary LCD image 05</title><path fill="#a1a898" d="M0 0h400v300H0z"/><path fill="#5e6c5c" d="m-100 0 100 300h25L-75 0z"/><path fill="#5e6c5c" d="m-35 0 100 300h25L-10 0z"/><path fill="#5e6c5c" d="m30 0 100 300h25L55 0z"/><path fill="#5e6c5c" d="m95 0 100 300h25L120 0z"/><path fill="#5e6c5c" d="m160 0 100 300h25L185 0z"/><path fill="#5e6c5c" d="m225 0 100 300h25L250 0z"/><path fill="#5e6c5c" d="m290 0 100 300h25L315 0z"/><path fill="#5e6c5c" d="m355 0 100 300h25L380 0z"/><text x="28" y="266" fill="#fff" font-family="monospace" font-size="11" letter-spacing="2">IMAGE PLACEHOLDER 05</text></svg>